<mxfile host="app.diagrams.net" modified="2023-12-14T12:33:00.053Z" agent="Mozilla/5.0 (Windows NT 10.0; Win64; x64) AppleWebKit/537.36 (KHTML, like Gecko) Chrome/120.0.0.0 Safari/537.36 Edg/120.0.0.0" version="22.1.8" etag="gYRyhN_YZWPKbnOOoKAw" type="github">
  <diagram name="PÃ¡gina-1" id="y5JFezVKDwiO4CnKbwxP">
    <mxGraphModel>
      <root>
        <mxCell id="0" />
        <mxCell id="1" parent="0" />
      </root>
    </mxGraphModel>
  </diagram>
</mxfile>
